# Blender 5.1.1
# www.blender.org
mtllib half_bend.mtl
o Cylinder
v 0.500000 -0.000000 0.500000
v 0.500000 -0.000000 0.500000
v 0.500000 -0.097545 0.490393
v 0.490393 -0.097545 0.500000
v 0.500000 -0.191342 0.461940
v 0.461940 -0.191342 0.500000
v 0.500000 -0.277785 0.415735
v 0.415735 -0.277785 0.500000
v 0.500000 -0.353553 0.353553
v 0.353553 -0.353553 0.500000
v 0.500000 -0.415735 0.277785
v 0.277785 -0.415735 0.500000
v 0.500000 -0.461940 0.191342
v 0.191342 -0.461940 0.500000
v 0.500000 -0.490393 0.097545
v 0.097545 -0.490393 0.500000
v 0.500000 -0.500000 0.000000
v -0.000000 -0.500000 0.500000
v 0.500000 -0.490393 -0.097545
v -0.097545 -0.490393 0.500000
v 0.500000 -0.461940 -0.191342
v -0.191342 -0.461940 0.500000
v 0.500000 -0.415735 -0.277785
v -0.277785 -0.415735 0.500000
v 0.500000 -0.353553 -0.353553
v -0.353553 -0.353553 0.500000
v 0.500000 -0.277785 -0.415735
v -0.415735 -0.277785 0.500000
v 0.500000 -0.191342 -0.461940
v -0.461940 -0.191342 0.500000
v 0.500000 -0.097545 -0.490393
v -0.490393 -0.097545 0.500000
v 0.500000 0.000000 -0.500000
v -0.500000 0.000000 0.500000
v 0.500000 0.097545 -0.490393
v -0.490393 0.097545 0.500000
v 0.500000 0.191342 -0.461940
v -0.461940 0.191342 0.500000
v 0.500000 0.277785 -0.415735
v -0.415735 0.277785 0.500000
v 0.500000 0.353553 -0.353553
v -0.353553 0.353553 0.500000
v 0.500000 0.415735 -0.277785
v -0.277785 0.415735 0.500000
v 0.500000 0.461940 -0.191342
v -0.191342 0.461940 0.500000
v 0.500000 0.490393 -0.097545
v -0.097545 0.490393 0.500000
v 0.500000 0.500000 0.000000
v 0.000000 0.500000 0.500000
v 0.500000 0.490393 0.097545
v 0.097545 0.490393 0.500000
v 0.500000 0.461940 0.191342
v 0.191342 0.461940 0.500000
v 0.500000 0.415735 0.277785
v 0.277785 0.415735 0.500000
v 0.500000 0.353553 0.353553
v 0.353553 0.353553 0.500000
v 0.500000 0.277785 0.415735
v 0.415735 0.277785 0.500000
v 0.500000 0.191342 0.461940
v 0.461940 0.191342 0.500000
v 0.500000 0.097545 0.490393
v 0.490393 0.097545 0.500000
vn 1.0000 -0.0000 -0.0000
vn 0.6914 -0.2097 0.6914
vn 0.6614 -0.3535 0.6614
vn 0.6116 -0.5019 0.6116
vn 0.5357 -0.6527 0.5357
vn 0.4264 -0.7977 0.4264
vn 0.2788 -0.9190 0.2788
vn 0.0975 -0.9904 0.0975
vn -0.0975 -0.9904 -0.0975
vn -0.2788 -0.9190 -0.2788
vn -0.4264 -0.7977 -0.4264
vn -0.5357 -0.6527 -0.5357
vn -0.6116 -0.5019 -0.6116
vn -0.6614 -0.3535 -0.6614
vn -0.6914 -0.2097 -0.6914
vn -0.7054 -0.0695 -0.7054
vn -0.7054 0.0695 -0.7054
vn -0.6914 0.2097 -0.6914
vn -0.6614 0.3535 -0.6614
vn -0.6116 0.5019 -0.6116
vn -0.5357 0.6527 -0.5357
vn -0.4264 0.7977 -0.4264
vn -0.2788 0.9190 -0.2788
vn -0.0976 0.9904 -0.0975
vn 0.0975 0.9904 0.0975
vn 0.2788 0.9190 0.2788
vn 0.4264 0.7977 0.4264
vn 0.5357 0.6527 0.5357
vn 0.6116 0.5019 0.6116
vn 0.6614 0.3535 0.6614
vn -0.0000 -0.0000 1.0000
vn 0.6914 0.2097 0.6914
vn 0.7054 0.0695 0.7054
vn 0.7054 -0.0695 0.7054
vn -0.0975 0.9904 -0.0975
vn 0.0976 0.9904 0.0975
vt 1.000000 1.000000
vt 0.968750 0.500000
vt 1.000000 0.500000
vt 0.968750 1.000000
vt 0.937500 0.500000
vt 0.937500 1.000000
vt 0.906250 0.500000
vt 0.906250 1.000000
vt 0.875000 0.500000
vt 0.843750 1.000000
vt 0.843750 0.500000
vt 0.812500 1.000000
vt 0.812500 0.500000
vt 0.781250 0.500000
vt 0.781250 1.000000
vt 0.750000 0.500000
vt 0.718750 1.000000
vt 0.718750 0.500000
vt 0.687500 0.500000
vt 0.656250 1.000000
vt 0.656250 0.500000
vt 0.625000 0.500000
vt 0.593750 1.000000
vt 0.593750 0.500000
vt 0.562500 1.000000
vt 0.562500 0.500000
vt 0.531250 0.500000
vt 0.500000 1.000000
vt 0.500000 0.500000
vt 0.468750 0.500000
vt 0.437500 1.000000
vt 0.437500 0.500000
vt 0.406250 1.000000
vt 0.406250 0.500000
vt 0.375000 1.000000
vt 0.375000 0.500000
vt 0.343750 0.500000
vt 0.343750 1.000000
vt 0.312500 0.500000
vt 0.281250 1.000000
vt 0.281250 0.500000
vt 0.250000 0.500000
vt 0.250000 1.000000
vt 0.218750 0.500000
vt 0.218750 1.000000
vt 0.187500 0.500000
vt 0.187500 1.000000
vt 0.156250 0.500000
vt 0.156250 1.000000
vt 0.125000 0.500000
vt 0.093750 1.000000
vt 0.093750 0.500000
vt 0.062500 1.000000
vt 0.062500 0.500000
vt 0.158156 0.028269
vt 0.471731 0.158156
vt 0.341844 0.471731
vt 0.031250 1.000000
vt 0.031250 0.500000
vt 0.000000 0.500000
vt 0.796822 0.014612
vt 0.514612 0.203178
vt 0.703178 0.485388
vt 0.875000 1.000000
vt 0.750000 1.000000
vt 0.687500 1.000000
vt 0.625000 1.000000
vt 0.531250 1.000000
vt 0.468750 1.000000
vt 0.312500 1.000000
vt 0.125000 1.000000
vt 0.296822 0.485388
vt 0.250000 0.490000
vt 0.203178 0.485388
vt 0.158156 0.471731
vt 0.116663 0.449553
vt 0.080294 0.419706
vt 0.050447 0.383337
vt 0.028269 0.341844
vt 0.014612 0.296822
vt 0.010000 0.250000
vt 0.014612 0.203178
vt 0.028269 0.158156
vt 0.050447 0.116663
vt 0.080294 0.080294
vt 0.116663 0.050447
vt 0.203178 0.014612
vt 0.250000 0.010000
vt 0.296822 0.014612
vt 0.341844 0.028269
vt 0.383337 0.050447
vt 0.419706 0.080294
vt 0.449553 0.116663
vt 0.485388 0.203178
vt 0.490000 0.250000
vt 0.485388 0.296822
vt 0.471731 0.341844
vt 0.449553 0.383337
vt 0.419706 0.419706
vt 0.383337 0.449553
vt 0.000000 1.000000
vt 0.750000 0.490000
vt 0.796822 0.485388
vt 0.841844 0.471731
vt 0.883337 0.449553
vt 0.919706 0.419706
vt 0.949553 0.383337
vt 0.971731 0.341844
vt 0.985388 0.296822
vt 0.990000 0.250000
vt 0.985388 0.203178
vt 0.971731 0.158156
vt 0.949553 0.116663
vt 0.919706 0.080294
vt 0.883337 0.050447
vt 0.841844 0.028269
vt 0.750000 0.010000
vt 0.703178 0.014612
vt 0.658156 0.028269
vt 0.616663 0.050447
vt 0.580294 0.080294
vt 0.550447 0.116663
vt 0.528269 0.158156
vt 0.510000 0.250000
vt 0.514612 0.296822
vt 0.528269 0.341844
vt 0.550447 0.383337
vt 0.580294 0.419706
vt 0.616663 0.449553
vt 0.658156 0.471731
s 0
f 2/1/1 3/2/1 1/3/1
f 4/4/2 5/5/2 3/2/2
f 6/6/3 7/7/3 5/5/3
f 8/8/4 9/9/4 7/7/4
f 9/9/5 12/10/5 11/11/5
f 11/11/6 14/12/6 13/13/6
f 14/12/7 15/14/7 13/13/7
f 16/15/8 17/16/8 15/14/8
f 17/16/9 20/17/9 19/18/9
f 20/17/10 21/19/10 19/18/10
f 21/19/11 24/20/11 23/21/11
f 24/20/12 25/22/12 23/21/12
f 25/22/13 28/23/13 27/24/13
f 27/24/14 30/25/14 29/26/14
f 30/25/15 31/27/15 29/26/15
f 31/27/16 34/28/16 33/29/16
f 34/28/17 35/30/17 33/29/17
f 35/30/18 38/31/18 37/32/18
f 37/32/19 40/33/19 39/34/19
f 39/34/20 42/35/20 41/36/20
f 42/35/21 43/37/21 41/36/21
f 44/38/22 45/39/22 43/37/22
f 45/39/23 48/40/23 47/41/23
f 48/40/24 49/42/24 47/41/24
f 50/43/25 51/44/25 49/42/25
f 52/45/26 53/46/26 51/44/26
f 54/47/27 55/48/27 53/46/27
f 56/49/28 57/50/28 55/48/28
f 57/50/29 60/51/29 59/52/29
f 59/52/30 62/53/30 61/54/30
f 38/55/31 22/56/31 6/57/31
f 61/54/32 64/58/32 63/59/32
f 64/58/33 1/60/33 63/59/33
f 31/61/1 47/62/1 63/63/1
f 2/1/34 4/4/34 3/2/34
f 4/4/2 6/6/2 5/5/2
f 6/6/3 8/8/3 7/7/3
f 8/8/4 10/64/4 9/9/4
f 9/9/5 10/64/5 12/10/5
f 11/11/6 12/10/6 14/12/6
f 14/12/7 16/15/7 15/14/7
f 16/15/8 18/65/8 17/16/8
f 17/16/9 18/65/9 20/17/9
f 20/17/10 22/66/10 21/19/10
f 21/19/11 22/66/11 24/20/11
f 24/20/12 26/67/12 25/22/12
f 25/22/13 26/67/13 28/23/13
f 27/24/14 28/23/14 30/25/14
f 30/25/15 32/68/15 31/27/15
f 31/27/16 32/68/16 34/28/16
f 34/28/17 36/69/17 35/30/17
f 35/30/18 36/69/18 38/31/18
f 37/32/19 38/31/19 40/33/19
f 39/34/20 40/33/20 42/35/20
f 42/35/21 44/38/21 43/37/21
f 44/38/22 46/70/22 45/39/22
f 45/39/23 46/70/23 48/40/23
f 48/40/35 50/43/35 49/42/35
f 50/43/36 52/45/36 51/44/36
f 52/45/26 54/47/26 53/46/26
f 54/47/27 56/49/27 55/48/27
f 56/49/28 58/71/28 57/50/28
f 57/50/29 58/71/29 60/51/29
f 59/52/30 60/51/30 62/53/30
f 6/57/31 4/72/31 2/73/31
f 2/73/31 64/74/31 62/75/31
f 62/75/31 60/76/31 58/77/31
f 58/77/31 56/78/31 54/79/31
f 54/79/31 52/80/31 50/81/31
f 50/81/31 48/82/31 46/83/31
f 46/83/31 44/84/31 42/85/31
f 42/85/31 40/86/31 38/55/31
f 38/55/31 36/87/31 34/88/31
f 34/88/31 32/89/31 30/90/31
f 30/90/31 28/91/31 26/92/31
f 26/92/31 24/93/31 22/56/31
f 22/56/31 20/94/31 18/95/31
f 18/95/31 16/96/31 14/97/31
f 14/97/31 12/98/31 10/99/31
f 10/99/31 8/100/31 6/57/31
f 6/57/31 2/73/31 62/75/31
f 62/75/31 58/77/31 54/79/31
f 54/79/31 50/81/31 46/83/31
f 46/83/31 42/85/31 38/55/31
f 38/55/31 34/88/31 30/90/31
f 30/90/31 26/92/31 22/56/31
f 22/56/31 18/95/31 14/97/31
f 14/97/31 10/99/31 6/57/31
f 6/57/31 62/75/31 54/79/31
f 54/79/31 46/83/31 38/55/31
f 38/55/31 30/90/31 22/56/31
f 22/56/31 14/97/31 6/57/31
f 6/57/31 54/79/31 38/55/31
f 61/54/32 62/53/32 64/58/32
f 64/58/1 2/101/1 1/60/1
f 63/63/1 1/102/1 3/103/1
f 3/103/1 5/104/1 7/105/1
f 7/105/1 9/106/1 11/107/1
f 11/107/1 13/108/1 15/109/1
f 15/109/1 17/110/1 19/111/1
f 19/111/1 21/112/1 23/113/1
f 23/113/1 25/114/1 27/115/1
f 27/115/1 29/116/1 31/61/1
f 31/61/1 33/117/1 35/118/1
f 35/118/1 37/119/1 39/120/1
f 39/120/1 41/121/1 43/122/1
f 43/122/1 45/123/1 47/62/1
f 47/62/1 49/124/1 51/125/1
f 51/125/1 53/126/1 55/127/1
f 55/127/1 57/128/1 59/129/1
f 59/129/1 61/130/1 63/63/1
f 63/63/1 3/103/1 7/105/1
f 7/105/1 11/107/1 15/109/1
f 15/109/1 19/111/1 23/113/1
f 23/113/1 27/115/1 31/61/1
f 31/61/1 35/118/1 39/120/1
f 39/120/1 43/122/1 47/62/1
f 47/62/1 51/125/1 55/127/1
f 55/127/1 59/129/1 63/63/1
f 63/63/1 7/105/1 15/109/1
f 15/109/1 23/113/1 31/61/1
f 31/61/1 39/120/1 47/62/1
f 47/62/1 55/127/1 63/63/1
f 63/63/1 15/109/1 31/61/1